<?xml version="1.0" standalone="no"?>
<!DOCTYPE svg PUBLIC "-//W3C//DTD SVG 20010904//EN"
 "http://www.w3.org/TR/2001/REC-SVG-20010904/DTD/svg10.dtd">
<svg version="1.0" xmlns="http://www.w3.org/2000/svg"
 width="209.000000pt" height="210.000000pt" viewBox="0 0 209.000000 210.000000"
 preserveAspectRatio="xMidYMid meet">

<g transform="translate(0.000000,210.000000) scale(0.100000,-0.100000)"
fill="#878184" stroke="none">
<path d="M913 1906 c-196 -38 -350 -122 -484 -264 -108 -114 -146 -219 -128
-351 15 -102 39 -142 166 -277 122 -129 234 -227 363 -315 l75 -52 -71 66
c-166 154 -255 329 -210 415 17 33 69 57 108 49 20 -4 20 -4 -4 -6 -64 -3
-108 -47 -108 -108 0 -59 65 -170 146 -248 89 -88 210 -171 270 -187 24 -7 41
-15 38 -19 -2 -4 6 -7 19 -7 12 0 40 -6 63 -13 35 -10 52 -10 110 4 38 10 80
20 94 23 46 12 -37 -45 -135 -91 -139 -66 -204 -80 -385 -80 -122 0 -168 4
-215 18 -125 39 -235 111 -302 198 -20 27 -39 46 -41 44 -3 -3 17 -41 44 -86
119 -199 331 -351 559 -400 94 -20 285 -15 380 10 230 61 437 225 544 430 257
494 -8 1094 -544 1231 -104 27 -259 34 -352 16z m-298 -354 c31 -51 87 -83
200 -113 99 -26 106 -26 147 -11 61 22 190 21 255 -1 28 -10 64 -20 79 -23 43
-8 172 -78 237 -129 105 -83 207 -252 222 -366 5 -41 4 -39 -19 23 -53 148
-157 282 -301 388 -11 8 -3 -5 18 -29 53 -59 94 -151 102 -225 11 -102 -34
-270 -94 -355 l-21 -29 38 -6 c20 -3 48 -15 62 -26 26 -20 21 -27 -8 -11 -9 4
-30 11 -47 15 l-30 7 33 -26 c39 -32 43 -54 4 -25 -44 33 -97 35 -187 10 -136
-38 -196 -16 -251 92 -34 66 -30 71 10 13 32 -47 76 -95 76 -82 0 3 -14 40
-31 82 -36 91 -52 176 -39 210 8 22 12 24 34 14 35 -16 48 -86 26 -144 -9 -23
-8 -25 10 -15 27 14 65 66 88 121 18 41 24 47 59 52 72 12 73 12 73 -39 0 -25
-5 -54 -11 -66 -19 -35 -3 -30 43 15 34 32 53 64 76 125 50 130 28 175 -103
213 -66 19 -84 30 -133 79 -83 81 -127 99 -283 110 -269 21 -372 94 -368 261
l2 54 7 -65 c3 -36 15 -80 25 -98z m373 -332 c-4 -29 -4 -30 18 -15 21 14 24
13 34 -4 14 -28 13 -31 -15 -31 -33 0 -69 17 -83 41 -16 25 -7 39 25 39 22 0
25 -3 21 -30z m779 -397 c-3 -10 -5 -4 -5 12 0 17 2 24 5 18 2 -7 2 -21 0 -30z"/>
<path d="M940 626 c0 -3 9 -10 20 -16 11 -6 20 -8 20 -6 0 3 -9 10 -20 16 -11
6 -20 8 -20 6z"/>
<path d="M1013 593 c9 -2 25 -2 35 0 9 3 1 5 -18 5 -19 0 -27 -2 -17 -5z"/>
</g>
</svg>
