<svg id="Layer_1" data-name="Layer 1" xmlns="http://www.w3.org/2000/svg" xmlns:xlink="http://www.w3.org/1999/xlink" viewBox="0 0 512 512"><defs><linearGradient id="linear-gradient" x1="256" y1="512" x2="256" gradientUnits="userSpaceOnUse"><stop offset="0"/><stop offset="1" stop-color="#333"/></linearGradient></defs><title>clock</title><path d="M256,0C114.84,0,0,114.85,0,256S114.84,512,256,512,512,397.17,512,256,397.17,0,256,0Zm0,460.13C143.45,460.14,51.86,368.57,51.86,256S143.45,51.86,256,51.86,460.14,143.45,460.14,256,368.56,460.14,256,460.14ZM437.16,252.56v10.13A15.41,15.41,0,0,1,421.79,278H248.47a15.41,15.41,0,0,1-15.38-15.35V130.53a15.42,15.42,0,0,1,15.38-15.38h15.06a15.41,15.41,0,0,1,15.36,15.38V237.18h142.9A15.41,15.41,0,0,1,437.16,252.56Z" fill="#edbf21"/></svg>
